<svg xmlns="http://www.w3.org/2000/svg" viewBox="0 0 626.64 512"><path d="M539.64,172h-30V90a15,15,0,0,0-15-15h-44V45h44a45,45,0,0,1,45,45Z" fill="#1a1b1c"/><path d="M231.64,172h-30V90a45.05,45.05,0,0,1,45-45h44V75h-44a15,15,0,0,0-15,15h0Z" fill="#292b2c"/><path d="M555.64,497h-370a45.05,45.05,0,0,1-45-45V247h460V452A45,45,0,0,1,555.64,497Z" fill="#cf1b25"/><path d="M370.64,247V497h185a45,45,0,0,0,45-45V247Z" fill="#cf1b25"/><path d="M626.64,277h-512V202a45.05,45.05,0,0,1,45-45h422a45,45,0,0,1,45,45Z" fill="#aa1127"/><path d="M626.64,202a45,45,0,0,0-45-45h-211V277h256Z" fill="#aa1127"/><path d="M465.64,105h-190V15h190Z" fill="#aa1127"/><rect x="370.64" y="15" width="95" height="90" fill="#aa1127"/><path d="M445.72,312.67c-.78-10.62-9.39-17.42-23.22-19,2.75-15.48,5.43-30.67,8.15-45.84.72-4-.73-6.45-4.45-8.34C405.08,228.77,384,225.11,363,228.26c-.52-.91-29.28,5.08-35.56,11.84-2.13,1.11-4.12,5.09-3.95,7.59.56,8.17,1.23,16.54,3.56,24.34,4,13.57,9.33,26.77,14.09,40.13-1.78,0-4.83.43-7.71-.08-10.57-1.88-15.9-12.63-9.34-20.56,5-6.08,2.24-10.46.35-15.83-11,5.19-17,16.22-15.27,27.75a21.23,21.23,0,0,0,19.54,18.34c6.27.54,12.94.82,18.93-.72,15.66-4.06,30.91-9.76,46.61-13.71a170.4,170.4,0,0,1,31.85-4.55c5.8-.31,13.15,2.27,13.19,9.14,0,6.27-3.24,12.75-5.85,18.79-1.33,3.06-4.44,5.35-6.74,8C436.5,337.54,446.39,322,445.72,312.67Zm-58.91-41.34c-1,6-.23,12.28-.23,19.07H366c.56-3.27,1.36-6.19,1.46-9.13a41.41,41.41,0,0,0-.76-10.18c-1.17-5.21-1.08-9.91,3.54-13.35,4.34-3.22,9-2.73,13.11.3C387.85,261.41,387.76,266,386.81,271.33Z" fill="#fff"/><path d="M353,324.74l59.28-19.32.94,2c-8.27,14.19-20,24.85-34.31,32.92a5.12,5.12,0,0,1-4.45-.37C367.75,335.42,361.2,330.59,353,324.74Z" fill="#fff"/><path d="M414.56,231.39l-15.42-4.23,16.7-17.4C415.39,216.87,415,223.65,414.56,231.39Z" fill="#fff"/><path d="M352.54,226.67l-13-16.13-1.4.53c.41,6.33.81,12.65,1.27,20L352,227.64A4.25,4.25,0,0,1,352.54,226.67Z" fill="#fff"/><path d="M211.1,441.92,185,329.82a6.55,6.55,0,0,0-6.37-5.06h-73.9a6.55,6.55,0,0,0-6.37,5.06L72.18,441.92a6.55,6.55,0,0,0,9.3,7.34l24.64-12.32L124,448.85a6.55,6.55,0,0,0,10.12-4.63L141.64,384l7.52,60.21a6.55,6.55,0,0,0,7.32,5.68,6.62,6.62,0,0,0,2.81-1.05l17.87-11.91,24.64,12.32a6.55,6.55,0,0,0,9.3-7.34Z" fill="#ffb031"/><path d="M211.1,441.92,185,329.82a6.55,6.55,0,0,0-6.37-5.06h-37V384l7.52,60.21a6.55,6.55,0,0,0,7.32,5.68,6.62,6.62,0,0,0,2.81-1.05l17.87-11.91,24.64,12.32a6.55,6.55,0,0,0,9.3-7.34Z" fill="#ffa300"/><path d="M210.32,379c-19.17-11.07-41.49-28.61-58.78-42.64a6.54,6.54,0,0,1,1.94-11.25c12.08-4.28,40.65-15.57,65.9-27.63a6.52,6.52,0,0,1,5.56,0c9.85,4.53,18.3,8.82,25.11,12.75a6.55,6.55,0,0,1,2.4,8.94l-33.19,57.48a6.55,6.55,0,0,1-8.94,2.4Z" fill="#e88f00"/><path d="M155.66,337.8a6.56,6.56,0,0,1-6.54-6.54V275.18a6.53,6.53,0,0,1,2.43-5.09c17.59-14.2,40.16-31.88,58.77-42.63a6.55,6.55,0,0,1,8.94,2.38h0l33.19,57.49a6.55,6.55,0,0,1-2.4,8.94c-28.46,16.43-75.23,35.13-92.2,41.14a6.51,6.51,0,0,1-2.19.38Z" fill="#ffa300"/><path d="M68,379.63a6.51,6.51,0,0,1-4-3.05L31.22,319.75a6.75,6.75,0,0,1-.37-7.19,6.58,6.58,0,0,1,2.4-2.4c6.82-3.94,15.27-8.23,25.11-12.75a6.52,6.52,0,0,1,5.56,0c25.25,12.06,53.82,23.35,65.9,27.63a6.55,6.55,0,0,1,4,8.37,6.63,6.63,0,0,1-2,2.88c-17.3,14-39.61,31.57-58.78,42.64a6.52,6.52,0,0,1-5,.65Z" fill="#ed9e2b"/><path d="M127.64,337.8a6.51,6.51,0,0,1-2.19-.38c-17-6-63.74-24.71-92.2-41.14a6.58,6.58,0,0,1-2.4-2.4,6.75,6.75,0,0,1,.37-7.19L64,229.85a6.53,6.53,0,0,1,8.92-2.43l.08,0c18.61,10.75,41.19,28.43,58.77,42.63a6.53,6.53,0,0,1,2.43,5.09v56.08a6.56,6.56,0,0,1-6.54,6.54Z" fill="#ffac27"/><path d="M155.66,337.8h-28a6.54,6.54,0,0,1-6.54-6.54h0V275.18a6.54,6.54,0,0,1,6.54-6.54h28a6.54,6.54,0,0,1,6.54,6.54h0v56.08A6.54,6.54,0,0,1,155.66,337.8Z" fill="#e0951e"/><path d="M155.66,268.64h-14V337.8h14a6.54,6.54,0,0,0,6.54-6.54h0V275.18A6.54,6.54,0,0,0,155.66,268.64Z" fill="#ed9c32"/><g opacity="0.2"><path d="M464.67,452.84c5.34.69,8.55,3.2,8.89,7.25.3,3.53-3.43,9.55-6.61,10.65l-.65-.48a14.8,14.8,0,0,0,2.5-3.08c1-2.32,2.31-4.79,2.33-7.2,0-2.64-2.77-3.7-5-3.58a63.1,63.1,0,0,0-12.23,1.71c-5.76,1.45-11.33,3.63-17.06,5.19a25.24,25.24,0,0,1-7.25.54c-4.57-.15-7.79-2.92-8.49-6.95a10,10,0,0,1,6-11c.74,2.14,1.77,3.93-.22,6.3-2.28,2.72-.7,6.43,2.78,7.46a29.25,29.25,0,0,0,4.37.6c-.4-.9-.58-1.45-.87-1.94-4.33-7.13-6.05-15-6.75-23.2a2.82,2.82,0,0,1,1.87-3.13q18.87-9.41,37.73,0c1.39.7,2.06,1.58,1.77,3.17C466.74,441,465.73,446.83,464.67,452.84Zm-13.54-1.31a26.86,26.86,0,0,1-.48-3.34A16.38,16.38,0,0,1,451,444c.48-2,.39-3.9-1.4-4.76a6.49,6.49,0,0,0-4.71-.15c-1.89.76-1.88,2.79-1.61,4.71a36.77,36.77,0,0,1,.24,4.92,25.83,25.83,0,0,1-.33,2.77Z"/><path d="M316.21,459.86V437.53c4.19,0,8.27-.39,12.25.09,6.4.76,9.9,5.06,9.84,11.19-.05,5.94-3.68,10.27-9.86,11C324.45,460.23,320.37,459.86,316.21,459.86Zm4.41-19v15.35c2.38,0,4.54.16,6.68,0a7,7,0,0,0,6.63-6.7c.35-4.11-1.64-7.23-5.6-8.06A55.24,55.24,0,0,0,320.62,440.86Z"/><path d="M353.29,437.11c7.18,0,12.23,4.88,12.14,11.68s-5.1,11.46-12.12,11.49S341,455.46,341,448.68,346.08,437.09,353.29,437.11Zm.1,3.8a7.52,7.52,0,0,0-8,7c0,.22,0,.44,0,.66a7.84,7.84,0,0,0,15.67.61,5.23,5.23,0,0,0,0-.56,7.5,7.5,0,0,0-7.29-7.71Z"/><path d="M392.38,448.59c0,7-4.88,11.7-12.07,11.69s-12.19-4.83-12.17-11.68,5-11.47,12-11.49C387.5,437.08,392.36,441.65,392.38,448.59Zm-12.13-7.68a7.48,7.48,0,0,0-7.76,7.17c0,.24,0,.47,0,.71a7.54,7.54,0,0,0,7.39,7.68c.21,0,.41,0,.61,0a7.78,7.78,0,0,0-.24-15.55Z"/><path d="M401,453.8v6.07h-4.11V437c4.57.34,9.14.39,13.61,1.1,2.85.46,4.65,2.73,5.08,5.71s-.16,5.95-3,7.91l-1.46,1c1.63,2.35,3.2,4.63,4.82,7-3,.88-5.21.37-6.41-2.46C408,453.44,405,452.84,401,453.8Zm.17-4.08c2.2,0,4.18.15,6.14,0,2.29-.22,3.86-1.42,4-3.94a3.93,3.93,0,0,0-3.26-4.5l-.38,0a50.66,50.66,0,0,0-6.52,0Z"/><path d="M478.75,459.94V437.4c4.9,0,9.75-.84,14.45.89A10.79,10.79,0,0,1,500,450c-.77,5.7-4.59,9.48-10.43,9.91C486.07,460.15,482.54,459.94,478.75,459.94Zm2.6-2.21a79,79,0,0,0,8-.05,8.76,8.76,0,0,0,8.13-7.78c.48-4.55-1.79-8.7-6-9.71-3.24-.78-6.69-.66-10.17-.95Z"/><path d="M521.07,459.86H505.39V437.3c4.81,0,9.48-.05,14.15.06.53,0,1,.91,1.56,1.39l-.5.69H508v7.9h10.84c1,2,.09,2.27-1.35,2.26h-9.56v8.24h11.45C520.71,457.81,521.8,457.92,521.07,459.86Z"/><path d="M438.11,464.67l22.55-7.27.38.74a29.19,29.19,0,0,1-9.21,10.14c-5.44,3.77-3.87,3.78-9.41,0C441,467.31,439.81,466.1,438.11,464.67Z"/><path d="M523.47,437.58c1.69-.7,2.54-.14,3.2,1.41,2.44,5.7,5,11.36,7.76,17.63,1.22-2.67,2.22-4.81,3.19-7,1.59-3.54,3.08-7.12,4.78-10.61.41-.86,1.48-1.4,2.24-2.08l.81.71c-.69,1.61-1.37,3.23-2.08,4.84-2.28,5.21-4.53,10.43-6.92,15.58a3.37,3.37,0,0,1-2.17,1.78c-.55.07-1.55-1-1.89-1.73-2.88-6.32-5.65-12.68-8.44-19A13.57,13.57,0,0,1,523.47,437.58Z"/><path d="M561.48,457.83H572.2c1.46,0,2.29.28,1.59,2.07H559.05V437.52c1.88-.63,2.48,0,2.46,1.87C561.44,445.43,561.48,451.48,561.48,457.83Z"/><path d="M549.19,459.56c0-6.86,0-13.72.07-20.58,0-.66,1-1.3,1.53-2l.91.52c0,7.12,0,14.24-.08,21.35,0,.48-1.19.94-1.82,1.41Z"/><path d="M455.89,427.37l6.17-7.21c-.15,3.14-.28,5.73-.42,8.68Z"/><path d="M432.12,420.1l6.11,7.27-5.53,1.52C432.51,426,432.34,423.38,432.12,420.1Z"/></g></svg>